# xmcd
#
# Track frame offsets:
#	150
#	12731
#	26015
#	38941
#	53682
#	70992
#	86520
#	102567
#	115302
#	134526
#	154564
#	171179
#	192141
#	205293
#	222806
#	250756
#
# Disc length: 3352 seconds
#
# Revision: 2
# Processed by: cddbd v1.5.2PL0 Copyright (c) Steve Scherf et al.
# Submitted via: audiograbber 1.83.01
#
DISCID=e30d1610
DTITLE=Foundation - SC7512s
DYEAR=1900
DGENRE=Karaoke
TTITLE0=Johnny Horton - Battle Of New Orleans
TTITLE1=Hank Williams - You're Cheating Heart
TTITLE2=Tammy Wynette - Stand By Your Man
TTITLE3=Hank Williams - Kaw-Liga
TTITLE4=Kenny Rogers - Gambler
TTITLE5=Judds - Mama He's Crazy
TTITLE6=Anne Murray - Could I Have This Dance
TTITLE7=Marty Robbins - White Sport Coat and A Pink Carnation
TTITLE8=Willie Nelson and Ray Charles - Seven Spanish Angels
TTITLE9=Kenny Rogers - She Believes in Me
TTITLE10=Holly Dunn - Daddy's Hands
TTITLE11=Judds - Grandpa tell Me Bout the Good Old Days
TTITLE12=Conway Twitty - Hello Darlin'
TTITLE13=Willie Nelson - Always on My Mind
TTITLE14=Reba McEntire - Whoever's In New England
TTITLE15=Data Track - Data Track
EXTD=
EXTT0=
EXTT1=
EXTT2=
EXTT3=
EXTT4=
EXTT5=
EXTT6=
EXTT7=
EXTT8=
EXTT9=
EXTT10=
EXTT11=
EXTT12=
EXTT13=
EXTT14=
EXTT15=
PLAYORDER=
